# xmcd CD database file
#
# Track frame offsets:
#	151
#	33146
#	70740
#	99571
#	125930
#	167796
#	189175
#
# Disc length: 3193 seconds
#
# Revision: 4
# Processed by: cddbd v1.5.2PL0 Copyright (c) Steve Scherf et al.
# Submitted via: CDex 1.83
#
DISCID=580c7707
DTITLE=Dolorian - When All the Laughter Has Gone
DYEAR=1999
DGENRE=Doom Metal
TTITLE0=Desolated Colours
TTITLE1=My Weary Eyes
TTITLE2=A Part Of Darkness
TTITLE3=When All the Laughter Has Gone
TTITLE4=Collapsed
TTITLE5=Fields
TTITLE6=With Scorn/Perish
EXTD=(C) and (P) 1999 Wounded Love Records (WLR017) YEAR: 1999
EXTT0=
EXTT1=
EXTT2=
EXTT3=
EXTT4=
EXTT5=
EXTT6=
PLAYORDER=
